<?xml version="1.0" standalone="no"?>
<!DOCTYPE svg PUBLIC "-//W3C//DTD SVG 20010904//EN"
 "http://www.w3.org/TR/2001/REC-SVG-20010904/DTD/svg10.dtd">
<svg version="1.0" xmlns="http://www.w3.org/2000/svg"
 width="300.000000pt" height="239.000000pt" viewBox="0 0 300.000000 239.000000"
 preserveAspectRatio="xMidYMid meet">
<metadata>
Created by potrace 1.10, written by Peter Selinger 2001-2011
</metadata>
<g transform="translate(0.000000,239.000000) scale(0.100000,-0.100000)"
fill="#000000" stroke="none">
<path d="M489 2355 c-55 -29 -104 -83 -132 -144 -18 -39 -22 -75 -28 -246 -4
-110 -14 -238 -23 -285 -41 -226 -126 -359 -253 -396 -32 -9 -53 -21 -53 -30
0 -8 1 -14 3 -14 18 0 116 35 128 46 9 8 19 12 22 9 4 -3 5 -3 3 0 -2 3 15 25
38 48 39 40 106 168 106 203 0 8 3 13 8 11 4 -3 7 7 8 21 1 15 9 63 18 106 10
49 19 153 22 265 4 123 11 202 21 234 24 76 109 153 208 188 15 5 11 7 -15 8
-19 0 -56 -11 -81 -24z"/>
<path d="M2415 2371 c58 -21 85 -37 85 -49 0 -7 6 -12 13 -10 12 3 67 -44 67
-57 0 -3 9 -16 20 -27 30 -33 40 -81 40 -198 0 -178 21 -347 62 -507 6 -24 15
-43 20 -43 5 0 6 -5 3 -10 -3 -6 1 -17 9 -25 8 -9 13 -22 9 -31 -3 -9 0 -14 8
-12 7 2 13 -1 14 -7 0 -18 57 -85 71 -85 8 0 14 -4 14 -10 0 -5 8 -10 17 -10
9 0 13 -3 9 -7 -4 -4 17 -15 46 -24 66 -22 78 -23 78 -5 0 9 -21 21 -53 30
-96 28 -169 113 -217 252 -36 104 -52 216 -59 424 -8 227 -16 259 -81 334 -41
46 -118 86 -162 85 -26 -1 -29 -3 -13 -8z"/>
<path d="M1039 1850 c-9 -5 -20 -26 -23 -46 -8 -42 -10 -1194 -2 -1202 3 -3 6
-16 6 -28 0 -47 23 -50 367 -43 338 7 369 11 469 62 53 27 144 116 144 141 0
9 4 16 9 16 6 0 10 8 10 18 0 9 5 46 11 82 11 69 8 112 -17 200 -21 72 -112
167 -168 175 -17 2 -6 26 26 53 38 31 79 95 79 122 0 11 5 20 10 20 6 0 10 40
10 100 0 60 -4 100 -10 100 -5 0 -10 7 -10 15 0 39 -78 145 -106 145 -6 0 -15
7 -18 16 -3 8 -10 12 -16 9 -6 -3 -13 0 -16 9 -3 8 -12 12 -21 9 -8 -3 -18 0
-23 6 -4 7 -23 15 -41 18 -70 10 -654 13 -670 3z m671 -36 c30 -8 78 -31 107
-50 143 -98 175 -287 69 -425 -33 -44 -116 -98 -152 -100 -11 0 8 -8 41 -18
113 -32 199 -114 226 -216 16 -58 6 -181 -19 -237 -43 -97 -151 -174 -277
-197 -33 -6 -194 -12 -363 -14 l-302 -2 0 640 0 640 307 -3 c240 -2 320 -6
363 -18z"/>
<path d="M1250 1480 l0 -193 158 6 c171 5 227 18 276 64 88 81 69 228 -38 282
-45 23 -62 25 -222 29 l-174 5 0 -193z m348 141 c2 -6 11 -11 21 -11 16 0 37
-17 71 -57 9 -10 15 -38 15 -70 0 -46 -4 -56 -35 -88 -30 -32 -68 -56 -92 -59
-3 -1 -10 -4 -14 -8 -13 -14 -260 -9 -272 5 -6 6 -11 55 -12 107 -3 172 -2
180 23 190 30 13 290 5 295 -9z"/>
<path d="M1250 930 l0 -213 183 6 c192 6 234 13 288 50 87 58 104 202 33 286
-47 56 -116 73 -321 79 l-183 5 0 -213z m387 159 c23 -6 60 -28 83 -49 41 -38
46 -55 40 -145 -2 -33 -42 -93 -69 -102 -9 -4 -18 -10 -21 -14 -3 -5 -20 -9
-38 -11 -18 -1 -32 -6 -32 -10 0 -4 -67 -8 -149 -8 -120 0 -151 3 -161 15 -14
17 -23 239 -11 295 l7 35 109 5 c133 6 187 4 242 -11z"/>
<path d="M0 1131 c0 -5 24 -17 53 -25 96 -28 169 -113 217 -252 36 -104 52
-216 59 -424 8 -227 16 -259 81 -334 39 -43 117 -86 157 -85 25 0 23 2 -19 22
-57 27 -163 131 -152 148 4 7 3 9 -3 6 -19 -12 -25 26 -34 218 -13 308 -22
358 -91 525 -35 84 -103 159 -172 191 -44 20 -96 25 -96 10z"/>
<path d="M2900 1122 c-19 -9 -36 -20 -38 -24 -2 -5 -9 -8 -16 -8 -16 0 -86
-80 -86 -97 0 -7 -4 -13 -10 -13 -5 0 -10 -9 -10 -19 0 -11 -4 -21 -10 -23
-11 -4 -54 -166 -70 -268 -6 -41 -14 -154 -17 -250 -2 -96 -8 -176 -13 -178
-5 -2 -6 -10 -4 -17 3 -8 -6 -29 -20 -48 -14 -19 -26 -37 -26 -40 0 -12 -39
-47 -52 -47 -6 0 -8 -3 -5 -7 7 -6 -8 -17 -78 -52 -38 -19 -39 -20 -12 -21 40
0 119 43 157 86 65 75 73 107 81 334 7 208 23 320 59 424 48 139 121 224 217
252 29 8 53 20 53 25 0 15 -62 9 -100 -9z"/>
</g>
</svg>
