<?xml version="1.0" standalone="no"?>
<!DOCTYPE svg PUBLIC "-//W3C//DTD SVG 20010904//EN"
 "http://www.w3.org/TR/2001/REC-SVG-20010904/DTD/svg10.dtd">
<svg version="1.0" xmlns="http://www.w3.org/2000/svg"
 width="300.000000pt" height="240.000000pt" viewBox="0 0 300.000000 240.000000"
 preserveAspectRatio="xMidYMid meet">
<metadata>
Created by potrace 1.10, written by Peter Selinger 2001-2011
</metadata>
<g transform="translate(0.000000,240.000000) scale(0.100000,-0.100000)"
fill="#000000" stroke="none">
<path d="M30 1200 l0 -1170 438 1 c380 1 433 2 407 14 -24 12 -109 14 -420 14
l-390 0 -3 1141 -2 1140 1437 -2 1438 -3 3 -1137 2 -1138 -132 0 c-96 -1 -140
-5 -158 -15 -22 -13 -7 -14 148 -15 l172 0 0 1170 0 1170 -1470 0 -1470 0 0
-1170z"/>
<path d="M829 1785 c-32 -17 -53 -69 -39 -95 14 -26 54 -33 95 -16 48 20 44
37 -5 20 -44 -15 -72 -9 -68 15 2 12 16 17 51 19 51 3 71 23 46 47 -23 21 -52
25 -80 10z m69 -22 c2 -9 -9 -13 -40 -13 -40 1 -42 2 -23 16 23 17 56 15 63
-3z"/>
<path d="M965 1790 c-4 -6 2 -21 14 -34 26 -28 26 -38 1 -61 -11 -10 -17 -22
-13 -28 4 -6 18 3 34 22 l27 32 22 -30 c12 -17 26 -28 32 -25 5 4 -2 18 -17
34 l-27 29 21 30 c27 38 10 51 -18 14 l-21 -28 -24 29 c-16 19 -26 24 -31 16z"/>
<path d="M1294 1778 c3 -13 8 -44 11 -70 8 -61 25 -63 25 -3 0 51 19 67 77 67
21 0 32 4 30 12 -5 15 -66 9 -93 -9 -20 -13 -22 -12 -27 5 -7 28 -28 25 -23
-2z"/>
<path d="M1523 1790 c-29 -12 -55 -53 -51 -82 5 -34 49 -52 93 -38 33 11 52
27 43 36 -3 2 -21 -3 -42 -11 -28 -12 -41 -13 -57 -5 -31 17 -17 35 32 38 48
4 70 17 63 36 -4 11 -48 38 -57 35 -1 0 -12 -4 -24 -9z m55 -27 c2 -9 -9 -13
-40 -13 -40 1 -42 2 -23 16 23 17 56 15 63 -3z"/>
<path d="M2050 1703 c4 -132 6 -126 -32 -118 -32 6 -32 5 -13 -10 11 -9 29
-14 40 -13 19 3 20 10 20 120 0 65 -4 118 -9 118 -4 0 -7 -44 -6 -97z"/>
<path d="M1127 1783 c-7 -6 6 -223 14 -223 5 0 9 24 9 54 0 52 1 54 30 60 35
6 80 50 80 76 0 29 -25 41 -80 38 -28 -2 -52 -4 -53 -5z m108 -37 c0 -20 -36
-50 -72 -61 -20 -6 -23 -3 -23 24 0 40 25 63 64 59 23 -2 31 -8 31 -22z"/>
<path d="M1663 1766 c-24 -21 -26 -26 -13 -40 10 -13 22 -16 52 -11 48 8 51
-8 6 -31 -18 -10 -27 -19 -21 -21 21 -7 84 37 81 56 -3 13 -14 15 -51 13 -36
-2 -47 0 -47 11 0 18 21 27 66 27 19 0 34 5 34 10 0 21 -78 11 -107 -14z"/>
<path d="M1837 1774 c-20 -11 -27 -22 -25 -37 3 -20 8 -22 52 -19 45 3 48 2
36 -13 -8 -10 -26 -22 -40 -27 -14 -6 -20 -12 -13 -15 17 -6 71 24 83 46 13
25 -8 33 -61 25 -22 -4 -39 -2 -39 3 0 19 26 33 62 33 21 0 38 5 38 10 0 15
-61 11 -93 -6z"/>
<path d="M2123 1766 c-24 -21 -26 -26 -13 -40 10 -13 22 -16 52 -11 49 9 51
-11 3 -31 -39 -16 -44 -24 -15 -24 26 0 85 53 76 69 -5 8 -23 9 -58 5 -49 -7
-50 -6 -39 15 9 16 21 21 51 21 22 0 40 5 40 10 0 20 -69 10 -97 -14z"/>
<path d="M853 1534 c-3 -8 -1 -20 5 -26 16 -16 42 -2 42 22 0 24 -38 28 -47 4z"/>
<path d="M950 1525 c0 -26 14 -31 39 -16 19 12 6 41 -19 41 -15 0 -20 -7 -20
-25z"/>
<path d="M1050 1525 c0 -17 5 -25 18 -25 14 0 15 2 2 10 -13 9 -13 10 0 10 12
0 13 2 1 9 -11 7 -11 9 0 14 10 4 9 6 -3 6 -13 1 -18 -7 -18 -24z"/>
<path d="M1198 1528 c4 -16 2 -19 -9 -13 -11 6 -11 5 -2 -5 6 -7 16 -9 22 -6
16 10 13 46 -3 46 -10 0 -12 -7 -8 -22z"/>
<path d="M1270 1542 c0 -4 6 -14 13 -21 10 -11 9 -13 -6 -8 -11 4 -16 3 -12
-3 10 -15 35 -12 35 5 0 8 -6 15 -12 15 -9 0 -8 4 2 10 13 8 12 10 -2 10 -10
0 -18 -4 -18 -8z"/>
<path d="M1491 1523 c0 -16 3 -22 6 -15 4 10 8 10 19 1 11 -9 14 -7 14 15 0
19 -5 26 -20 26 -15 0 -20 -6 -19 -27z"/>
<path d="M1590 1541 c0 -5 -2 -15 -5 -23 -4 -9 3 -13 20 -13 29 0 28 0 15 26
-11 20 -30 26 -30 10z"/>
<path d="M1780 1525 c0 -20 5 -25 23 -24 19 1 19 2 3 6 -15 4 -16 7 -5 14 12
7 12 9 -1 10 -10 0 -8 3 5 9 19 8 19 9 -2 9 -18 1 -23 -5 -23 -24z"/>
<path d="M1890 1539 c0 -6 6 -17 14 -24 11 -12 15 -10 24 11 7 13 7 24 3 24
-5 0 -12 -8 -14 -17 -4 -17 -5 -17 -6 0 -1 18 -21 24 -21 6z"/>
<path d="M1982 1528 c4 -30 43 -33 43 -3 0 13 -8 21 -23 23 -20 3 -23 0 -20
-20z"/>
<path d="M2081 1523 c0 -16 3 -22 6 -15 3 9 9 10 17 3 8 -7 12 -3 14 15 1 18
-3 24 -18 24 -15 0 -20 -6 -19 -27z"/>
<path d="M2171 1525 c0 -16 3 -24 6 -17 4 9 8 10 18 2 10 -8 13 -5 11 15 -1
25 -16 36 -16 13 0 -9 -4 -8 -10 2 -7 11 -10 8 -9 -15z"/>
<path d="M2140 1317 c-148 -43 -241 -139 -270 -281 -24 -117 11 -242 92 -331
58 -64 136 -111 296 -180 128 -55 187 -100 201 -150 37 -136 -139 -217 -311
-143 -44 19 -111 79 -135 122 -8 15 -21 10 -122 -50 l-112 -66 17 -26 c39 -62
69 -96 122 -138 l57 -44 303 0 302 0 45 41 c26 24 59 70 78 108 30 61 32 72
31 166 -1 217 -80 307 -397 447 -131 58 -174 88 -194 136 -21 50 -10 94 33
131 30 27 43 31 90 31 30 0 68 -7 83 -14 30 -16 91 -80 91 -96 0 -5 49 23 110
62 127 82 125 74 26 174 -83 82 -144 106 -286 111 -65 2 -122 -2 -150 -10z
m266 -42 c31 -9 73 -27 93 -39 39 -25 101 -90 101 -106 0 -11 -69 -63 -113
-87 -27 -14 -30 -13 -70 24 -138 128 -345 39 -312 -133 11 -63 73 -112 224
-179 289 -127 371 -218 371 -409 0 -87 -11 -128 -50 -189 -55 -87 -55 -87
-376 -87 l-282 0 -48 33 c-27 19 -62 53 -78 76 -35 49 -34 51 61 104 l61 35
44 -45 c23 -24 71 -58 105 -75 58 -28 68 -30 145 -26 105 6 157 30 193 91 39
68 32 125 -24 189 -30 35 -44 43 -261 146 -142 68 -211 122 -255 204 -27 48
-29 62 -30 153 0 114 17 163 79 232 84 94 270 132 422 88z"/>
<path d="M1355 812 c0 -466 -1 -510 -18 -539 -25 -47 -59 -66 -120 -67 -69 -1
-112 25 -156 91 l-33 51 -107 -66 c-58 -36 -108 -67 -111 -69 -10 -8 38 -80
87 -130 l51 -53 269 0 269 0 36 38 c47 48 83 122 97 196 7 38 11 243 11 558
l0 498 -137 0 -138 0 0 -508z m230 -52 l0 -515 -33 -67 c-55 -111 -44 -108
-331 -108 -227 0 -249 2 -278 20 -36 21 -88 94 -79 108 3 5 38 29 76 52 l71
43 42 -45 c60 -65 97 -81 171 -76 73 4 114 29 142 85 18 35 19 72 22 517 2
337 6 484 14 493 8 10 34 13 97 11 l86 -3 0 -515z"/>
<path d="M1554 45 c-17 -13 2 -14 176 -14 173 1 192 2 165 14 -44 21 -314 21
-341 0z"/>
</g>
</svg>
