<?xml version="1.0" standalone="no"?>
<!DOCTYPE svg PUBLIC "-//W3C//DTD SVG 20010904//EN"
 "http://www.w3.org/TR/2001/REC-SVG-20010904/DTD/svg10.dtd">
<svg version="1.0" xmlns="http://www.w3.org/2000/svg"
 width="300.000000pt" height="300.000000pt" viewBox="0 0 300.000000 300.000000"
 preserveAspectRatio="xMidYMid meet">
<metadata>
Created by potrace 1.10, written by Peter Selinger 2001-2011
</metadata>
<g transform="translate(0.000000,300.000000) scale(0.100000,-0.100000)"
fill="#000000" stroke="none">
<path d="M1448 2213 c-34 -2 -58 -9 -58 -15 0 -6 -2 -9 -6 -6 -5 6 -179 -43
-219 -61 -41 -19 -84 -33 -89 -30 -2 2 -12 -3 -22 -12 -11 -9 -41 -28 -69 -42
-100 -50 -119 -84 -100 -178 8 -35 14 -66 16 -69 1 -3 4 -12 6 -20 28 -92 70
-155 107 -158 14 -1 26 3 26 9 0 5 4 8 8 5 5 -3 21 7 38 21 16 14 41 30 57 35
15 6 27 14 27 19 0 5 6 9 14 9 8 0 16 3 18 8 5 13 87 52 91 44 5 -7 -30 -46
-203 -232 -38 -41 -71 -77 -72 -81 -2 -3 -40 -46 -84 -95 -71 -77 -156 -176
-183 -210 -34 -43 -38 -100 -11 -159 7 -16 22 -50 33 -75 10 -25 32 -61 48
-81 16 -20 25 -40 21 -44 -4 -5 -1 -5 6 -1 6 4 12 3 12 -1 0 -5 15 -10 34 -11
27 -2 44 6 81 38 25 22 43 40 39 40 -6 0 48 64 106 126 17 17 30 35 30 39 0 4
14 21 31 37 17 17 42 46 55 65 23 35 24 35 33 12 4 -13 19 -51 32 -84 20 -53
89 -169 89 -150 0 4 9 -4 20 -18 11 -14 50 -40 87 -59 63 -31 76 -34 165 -36
79 -1 108 4 162 23 37 13 72 28 79 32 6 4 18 8 26 10 8 1 17 5 20 10 3 4 24
21 46 38 22 16 61 51 86 77 26 26 51 44 55 40 5 -4 2 1 -5 11 -8 9 -9 17 -3
17 10 0 46 56 83 128 27 51 69 186 69 220 0 23 -8 37 -33 56 -32 24 -36 25
-64 11 -16 -8 -42 -31 -59 -51 -28 -36 -126 -135 -158 -162 -13 -10 -16 -10
-17 0 0 7 -4 4 -9 -8 -5 -14 -29 -27 -70 -41 -67 -22 -204 -31 -215 -14 -3 6
-14 11 -23 11 -24 1 -76 49 -96 87 -16 33 -22 56 -8 38 30 -41 158 -64 253
-46 73 15 140 45 205 93 54 40 84 72 84 90 0 6 3 8 6 5 4 -4 15 8 26 26 113
195 103 393 -30 558 -40 51 -124 109 -187 130 -22 8 -43 18 -47 23 -6 10 -284
16 -390 9z m350 -38 c217 -51 352 -209 352 -416 0 -122 -58 -249 -157 -340
-111 -103 -267 -143 -384 -99 -56 20 -133 86 -144 121 -8 24 -28 25 -21 2 3
-10 12 -43 21 -74 29 -102 90 -176 173 -209 22 -9 61 -11 122 -8 150 9 227 57
390 245 35 40 51 51 67 47 40 -11 44 -44 14 -130 -110 -314 -315 -494 -561
-494 -201 0 -333 129 -374 367 l-11 63 -50 -68 c-27 -37 -57 -76 -66 -87 -196
-234 -251 -295 -267 -295 -33 0 -114 137 -145 245 -16 57 -27 37 82 165 36 43
180 205 236 266 5 6 46 51 90 100 73 81 109 120 233 254 23 25 37 46 32 48
-18 6 -203 -91 -311 -163 l-109 -74 -20 26 c-26 33 -70 173 -77 243 l-5 55 78
46 c262 154 578 218 812 164z"/>
<path d="M1645 1772 c-48 -75 -94 -145 -102 -154 -20 -23 -11 -34 41 -47 67
-16 129 -13 190 10 62 23 100 61 117 118 25 84 -16 156 -108 191 l-51 19 -87
-137z m185 46 c40 -38 42 -44 37 -85 -2 -24 -13 -53 -23 -63 -11 -11 -25 -26
-32 -34 -16 -20 -105 -46 -158 -46 -61 0 -71 18 -43 76 13 25 34 57 46 70 12
13 20 24 17 24 -6 0 33 58 55 82 26 28 57 21 101 -24z"/>
</g>
</svg>
