<?xml version="1.0" standalone="no"?>
<!DOCTYPE svg PUBLIC "-//W3C//DTD SVG 20010904//EN"
 "http://www.w3.org/TR/2001/REC-SVG-20010904/DTD/svg10.dtd">
<svg version="1.0" xmlns="http://www.w3.org/2000/svg"
 width="300.000000pt" height="141.000000pt" viewBox="0 0 300.000000 141.000000"
 preserveAspectRatio="xMidYMid meet">
<metadata>
Created by potrace 1.10, written by Peter Selinger 2001-2011
</metadata>
<g transform="translate(0.000000,141.000000) scale(0.100000,-0.100000)"
fill="#000000" stroke="none">
<path d="M497 1120 c-105 -27 -205 -109 -254 -208 -25 -51 -28 -68 -28 -157 0
-89 3 -107 29 -163 38 -81 123 -162 202 -192 70 -26 193 -29 262 -6 153 51
262 219 250 385 -10 135 -98 260 -223 317 -62 29 -174 40 -238 24z m158 -55
c207 -54 310 -266 219 -452 -32 -67 -115 -143 -182 -167 -72 -25 -179 -19
-247 14 -63 31 -124 92 -155 155 -33 68 -35 198 -4 266 42 90 125 159 223 185
61 17 77 17 146 -1z"/>
<path d="M680 928 c-25 -22 -78 -67 -118 -99 l-73 -59 58 0 58 0 55 81 c30 44
61 89 69 100 22 32 -1 21 -49 -23z"/>
<path d="M613 732 l-53 -3 -65 -96 c-36 -53 -64 -97 -63 -99 2 -1 42 30 88 69
47 40 101 84 120 99 19 15 32 28 30 30 -3 2 -29 2 -57 0z"/>
<path d="M1857 921 c-1 -3 -1 -75 1 -158 l3 -153 26 0 c24 0 25 2 19 39 -4 27
-2 42 8 50 11 9 20 2 45 -39 26 -42 36 -50 61 -50 16 0 30 2 30 5 0 3 -21 32
-46 66 l-47 61 44 44 43 44 -31 0 c-25 0 -38 -9 -64 -42 -18 -24 -36 -47 -41
-52 -4 -5 -7 35 -5 89 2 96 1 98 -21 100 -13 1 -24 -1 -25 -4z"/>
<path d="M2480 905 c-18 -21 -5 -47 22 -43 26 3 37 36 16 49 -18 12 -24 11
-38 -6z"/>
<path d="M2293 882 c-18 -3 -23 -10 -23 -32 0 -22 -4 -28 -15 -24 -10 4 -15 0
-15 -15 0 -12 6 -21 15 -21 12 0 15 -14 15 -70 0 -81 19 -110 70 -110 26 0 30
4 30 26 0 14 -4 23 -9 20 -5 -4 -16 -3 -25 0 -12 5 -16 21 -16 70 0 62 1 64
25 64 19 0 25 5 25 21 0 17 -4 20 -24 15 -22 -5 -25 -3 -28 26 -3 28 -7 32
-25 30z"/>
<path d="M1304 807 c-37 -33 -28 -70 25 -97 46 -23 53 -31 41 -49 -6 -10 -20
-12 -49 -7 -36 6 -41 4 -41 -14 0 -44 114 -36 136 9 17 34 3 62 -44 89 -45 25
-50 33 -28 51 9 8 21 8 39 2 20 -8 27 -6 31 5 10 25 -2 34 -44 34 -26 0 -48
-8 -66 -23z"/>
<path d="M1477 807 c-54 -43 -42 -158 19 -186 47 -21 83 -14 121 24 33 33 35
38 31 87 -4 40 -11 57 -32 75 -37 31 -100 31 -139 0z m114 -48 c12 -23 6 -74
-12 -96 -15 -17 -53 -17 -68 1 -7 8 -15 30 -18 49 -4 29 -1 40 21 62 21 21 29
24 46 15 11 -6 25 -20 31 -31z"/>
<path d="M1718 814 c-15 -8 -32 -23 -38 -34 -13 -24 -13 -96 0 -121 28 -52
150 -68 150 -19 0 14 -8 17 -41 16 -48 -1 -69 20 -69 69 0 42 29 68 72 63 28
-2 33 0 36 20 3 20 -1 22 -40 22 -24 -1 -55 -7 -70 -16z"/>
<path d="M2093 818 c-54 -26 -67 -126 -22 -174 40 -42 149 -45 149 -3 0 17 -5
18 -40 13 -44 -7 -90 14 -90 42 0 13 12 15 70 12 l70 -3 0 28 c0 35 -24 83
-45 91 -24 9 -67 6 -92 -6z m81 -40 c24 -34 20 -38 -34 -38 -54 0 -62 10 -33
42 22 24 49 23 67 -4z"/>
<path d="M2479 823 c0 -5 0 -53 0 -108 0 -98 0 -100 24 -103 l24 -3 0 110 c-1
109 -1 111 -24 111 -13 0 -23 -3 -24 -7z"/>
<path d="M2597 810 c-50 -39 -54 -133 -8 -174 25 -23 89 -30 121 -14 36 19 64
80 56 123 -14 74 -111 111 -169 65z m113 -61 c11 -40 -7 -88 -36 -95 -69 -17
-92 116 -24 139 22 7 53 -16 60 -44z"/>
<path d="M2397 673 c-13 -12 -7 -54 9 -60 23 -8 47 20 39 46 -6 20 -34 28 -48
14z"/>
</g>
</svg>
